<mxfile host="Electron" modified="2024-04-03T06:53:42.827Z" agent="Mozilla/5.0 (Windows NT 10.0; Win64; x64) AppleWebKit/537.36 (KHTML, like Gecko) draw.io/24.1.0 Chrome/120.0.6099.109 Electron/28.1.0 Safari/537.36" etag="NCVf0apemav-3qsX1cJP" version="24.1.0" type="device">
  <diagram name="Page-1" id="3U6WLbk4xSi_iQSTq3Mc">
    <mxGraphModel dx="2573" dy="1918" grid="1" gridSize="10" guides="1" tooltips="1" connect="1" arrows="1" fold="1" page="1" pageScale="1" pageWidth="850" pageHeight="1100" math="0" shadow="0">
      <root>
        <mxCell id="0" />
        <mxCell id="1" parent="0" />
        <mxCell id="oL--SGEV0s0IDcvez-js-1" value="" style="rounded=0;whiteSpace=wrap;html=1;" vertex="1" parent="1">
          <mxGeometry x="-85" y="-655" width="440" height="660" as="geometry" />
        </mxCell>
        <mxCell id="oL--SGEV0s0IDcvez-js-2" value="" style="group" vertex="1" connectable="0" parent="1">
          <mxGeometry x="30" y="-470" width="210" height="80" as="geometry" />
        </mxCell>
        <mxCell id="oL--SGEV0s0IDcvez-js-3" value="" style="ellipse;whiteSpace=wrap;html=1;" vertex="1" parent="oL--SGEV0s0IDcvez-js-2">
          <mxGeometry width="210" height="80" as="geometry" />
        </mxCell>
        <mxCell id="oL--SGEV0s0IDcvez-js-4" value="&lt;font face=&quot;Tahoma&quot; style=&quot;font-size: 18px;&quot;&gt;Login&lt;/font&gt;" style="text;html=1;align=center;verticalAlign=middle;whiteSpace=wrap;rounded=0;" vertex="1" parent="oL--SGEV0s0IDcvez-js-2">
          <mxGeometry x="70" y="25" width="60" height="30" as="geometry" />
        </mxCell>
        <mxCell id="oL--SGEV0s0IDcvez-js-5" value="" style="group" vertex="1" connectable="0" parent="1">
          <mxGeometry x="30" y="-370" width="210" height="80" as="geometry" />
        </mxCell>
        <mxCell id="oL--SGEV0s0IDcvez-js-6" value="" style="ellipse;whiteSpace=wrap;html=1;" vertex="1" parent="oL--SGEV0s0IDcvez-js-5">
          <mxGeometry width="210" height="80" as="geometry" />
        </mxCell>
        <mxCell id="oL--SGEV0s0IDcvez-js-7" value="&lt;font face=&quot;Tahoma&quot; style=&quot;font-size: 18px;&quot;&gt;Assign Credentials&lt;/font&gt;" style="text;html=1;align=center;verticalAlign=middle;whiteSpace=wrap;rounded=0;" vertex="1" parent="oL--SGEV0s0IDcvez-js-5">
          <mxGeometry x="70" y="25" width="60" height="30" as="geometry" />
        </mxCell>
        <mxCell id="oL--SGEV0s0IDcvez-js-8" value="" style="group" vertex="1" connectable="0" parent="1">
          <mxGeometry x="30" y="-140" width="210" height="80" as="geometry" />
        </mxCell>
        <mxCell id="oL--SGEV0s0IDcvez-js-9" value="" style="ellipse;whiteSpace=wrap;html=1;" vertex="1" parent="oL--SGEV0s0IDcvez-js-8">
          <mxGeometry width="210" height="80" as="geometry" />
        </mxCell>
        <mxCell id="oL--SGEV0s0IDcvez-js-10" value="&lt;font face=&quot;Tahoma&quot; style=&quot;font-size: 18px;&quot;&gt;Upload SOS&lt;/font&gt;" style="text;html=1;align=center;verticalAlign=middle;whiteSpace=wrap;rounded=0;" vertex="1" parent="oL--SGEV0s0IDcvez-js-8">
          <mxGeometry x="35" y="10" width="140" height="60" as="geometry" />
        </mxCell>
        <mxCell id="oL--SGEV0s0IDcvez-js-11" value="Admin" style="shape=umlActor;verticalLabelPosition=bottom;verticalAlign=top;html=1;outlineConnect=0;" vertex="1" parent="1">
          <mxGeometry x="-290" y="-380" width="40" height="90" as="geometry" />
        </mxCell>
        <mxCell id="oL--SGEV0s0IDcvez-js-12" value="" style="endArrow=classic;html=1;rounded=0;exitX=1;exitY=0.3333333333333333;exitDx=0;exitDy=0;exitPerimeter=0;entryX=0;entryY=0.5;entryDx=0;entryDy=0;" edge="1" parent="1" source="oL--SGEV0s0IDcvez-js-11" target="oL--SGEV0s0IDcvez-js-3">
          <mxGeometry width="50" height="50" relative="1" as="geometry">
            <mxPoint x="-240" y="10" as="sourcePoint" />
            <mxPoint x="30" y="-430" as="targetPoint" />
          </mxGeometry>
        </mxCell>
        <mxCell id="oL--SGEV0s0IDcvez-js-13" value="" style="endArrow=classic;html=1;rounded=0;exitX=1;exitY=0.3333333333333333;exitDx=0;exitDy=0;exitPerimeter=0;entryX=0;entryY=0.5;entryDx=0;entryDy=0;" edge="1" parent="1" source="oL--SGEV0s0IDcvez-js-11" target="oL--SGEV0s0IDcvez-js-6">
          <mxGeometry width="50" height="50" relative="1" as="geometry">
            <mxPoint x="-240" y="-340" as="sourcePoint" />
            <mxPoint x="40" y="-420" as="targetPoint" />
          </mxGeometry>
        </mxCell>
        <mxCell id="oL--SGEV0s0IDcvez-js-14" value="&lt;font face=&quot;Times New Roman&quot; style=&quot;font-size: 36px;&quot;&gt;&lt;b style=&quot;&quot;&gt;Admin View&lt;/b&gt;&lt;/font&gt;" style="text;html=1;align=center;verticalAlign=middle;whiteSpace=wrap;rounded=0;" vertex="1" parent="1">
          <mxGeometry x="-70" y="-620" width="440" height="50" as="geometry" />
        </mxCell>
        <mxCell id="oL--SGEV0s0IDcvez-js-15" value="" style="group" vertex="1" connectable="0" parent="1">
          <mxGeometry x="30" y="-250" width="210" height="80" as="geometry" />
        </mxCell>
        <mxCell id="oL--SGEV0s0IDcvez-js-16" value="" style="ellipse;whiteSpace=wrap;html=1;" vertex="1" parent="oL--SGEV0s0IDcvez-js-15">
          <mxGeometry width="210" height="80" as="geometry" />
        </mxCell>
        <mxCell id="oL--SGEV0s0IDcvez-js-17" value="&lt;font face=&quot;Tahoma&quot; style=&quot;font-size: 18px;&quot;&gt;Update Credentials&lt;/font&gt;" style="text;html=1;align=center;verticalAlign=middle;whiteSpace=wrap;rounded=0;" vertex="1" parent="oL--SGEV0s0IDcvez-js-15">
          <mxGeometry x="35" y="10" width="140" height="60" as="geometry" />
        </mxCell>
        <mxCell id="oL--SGEV0s0IDcvez-js-18" value="" style="endArrow=classic;html=1;rounded=0;exitX=1;exitY=0.3333333333333333;exitDx=0;exitDy=0;exitPerimeter=0;entryX=0;entryY=0.5;entryDx=0;entryDy=0;" edge="1" parent="1" source="oL--SGEV0s0IDcvez-js-11" target="oL--SGEV0s0IDcvez-js-16">
          <mxGeometry width="50" height="50" relative="1" as="geometry">
            <mxPoint x="-240" y="-340" as="sourcePoint" />
            <mxPoint x="40" y="-320" as="targetPoint" />
          </mxGeometry>
        </mxCell>
        <mxCell id="oL--SGEV0s0IDcvez-js-19" value="" style="endArrow=classic;html=1;rounded=0;exitX=1;exitY=0.3333333333333333;exitDx=0;exitDy=0;exitPerimeter=0;entryX=0;entryY=0.5;entryDx=0;entryDy=0;" edge="1" parent="1" source="oL--SGEV0s0IDcvez-js-11" target="oL--SGEV0s0IDcvez-js-9">
          <mxGeometry width="50" height="50" relative="1" as="geometry">
            <mxPoint x="-240" y="-340" as="sourcePoint" />
            <mxPoint x="40" y="-200" as="targetPoint" />
          </mxGeometry>
        </mxCell>
      </root>
    </mxGraphModel>
  </diagram>
</mxfile>
